<?xml version="1.0" encoding="UTF-8"?>
<svg xmlns="http://www.w3.org/2000/svg" version="1.1" viewBox="0 0 216.1 208.9">
  <defs>
    <style>
      .cls-1 {
        fill: #0044c1;
      }

      .cls-2 {
        fill: #0059ff;
      }
    </style>
  </defs>
  <!-- Generator: Adobe Illustrator 28.7.1, SVG Export Plug-In . SVG Version: 1.2.0 Build 142)  -->
  <g>
    <g id="Camada_1">
      <g>
        <path class="cls-1" d="M29.6,132.3c.9,0,1.6-.6,1.9-1.4,9.6-29.6,37.9-48.7,72.8-48.7s62.4,19.7,72.3,48.7c.3.8,1,1.4,1.9,1.4h8.5c1.6,0,2.9-1.1,3.2-2.6,2.4-12.5,2.2-25.9-1.9-39.9-10.3-35.5-42-61.5-78.9-63.7C58.7,23,16.5,63.3,16.5,113.5s.5,10.9,1.5,16.2c.3,1.5,1.7,2.6,3.2,2.6h8.3Z"/>
        <path class="cls-2" d="M103.8,124.8c-19.8,0-36,15.7-36,35.5s15.9,35.7,36.5,35.7,36.2-16.2,36.2-36.2-16.2-35-36.8-35Z"/>
      </g>
    </g>
  </g>
</svg>