<?xml version="1.0" encoding="UTF-8"?>
<svg xmlns="http://www.w3.org/2000/svg" version="1.1" viewBox="0 0 635.3 208.9">
  <defs>
    <style>
      .cls-1 {
        fill: #fff;
      }
    </style>
  </defs>
  <!-- Generator: Adobe Illustrator 28.7.1, SVG Export Plug-In . SVG Version: 1.2.0 Build 142)  -->
  <g>
    <g id="Camada_1">
      <g>
        <g>
          <path class="cls-1" d="M320.1,41.9h15.1c2.4,0,3.5,1.2,3.5,3.5v99.5c0,2.4-1.2,3.5-3.5,3.5h-15.6c-1.9,0-3.3-1-4-2.9l-1.8-7.1c-7.8,8.2-17.6,12.3-29.4,12.3s-19.1-2.5-27.4-7.4c-8.3-4.9-14.9-11.7-19.7-20.2-4.8-8.5-7.2-17.8-7.2-27.9s2.4-19.3,7.3-27.8c4.9-8.4,11.4-15.1,19.8-20,8.3-4.9,17.4-7.4,27.3-7.4s21.9,4.1,29.6,12.3l2.1-7.7c.6-1.9,2-2.8,4-2.8ZM299.4,121c4.3-2.5,7.7-6,10.2-10.4,2.5-4.4,3.7-9.4,3.7-15s-1.2-10.6-3.7-15.1c-2.5-4.5-5.9-8-10.2-10.6-4.3-2.6-9.1-3.9-14.4-3.9s-10.1,1.3-14.3,3.9c-4.2,2.6-7.6,6.1-10,10.6-2.4,4.5-3.6,9.6-3.6,15.1s1.2,10.6,3.6,15.1c2.4,4.4,5.7,7.9,9.9,10.4s9,3.7,14.3,3.7,10.2-1.2,14.5-3.8Z"/>
          <path class="cls-1" d="M358.1,134.9c-.9-.8-1.4-1.6-1.4-2.6s.3-1.6,1-2.4l10.2-12.6c.8-1,1.7-1.5,2.6-1.5s1.4.3,2.4,1c4.1,3.1,8.5,5.5,13,7.3,4.6,1.8,9.1,2.7,13.6,2.7s6.5-.8,8.7-2.3c2.2-1.6,3.3-3.7,3.3-6.4s-.6-3.4-1.8-4.8c-1.2-1.4-3.2-2.7-5.9-4-2.7-1.3-6.6-2.7-11.5-4.3-9-2.9-16.4-7-22.1-12.1-5.7-5.1-8.6-12.1-8.6-21s1.4-10.8,4.2-15.6c2.8-4.8,7.1-8.7,12.8-11.7,5.7-3,12.8-4.5,21.1-4.5s11.8,1.1,17.8,3.4c6.1,2.3,11.4,5.6,16.1,9.9.8.8,1.2,1.6,1.2,2.5s-.4,1.7-1.1,2.5l-12.1,12.5c-.8.8-1.6,1.2-2.5,1.2s-1.6-.4-2.5-1.1c-2.5-1.9-5.4-3.5-8.5-4.8s-6.2-1.9-9.4-1.9-6.4.7-8.3,2.2c-1.9,1.5-2.9,3.4-2.9,5.7s.6,3.1,1.8,4.4c1.2,1.3,3.2,2.5,5.9,3.7,2.7,1.2,6.5,2.6,11.3,4.1,9.9,3.1,17.5,7.2,22.9,12.3,5.4,5.1,8.1,12.1,8.1,20.9s-1.5,11.2-4.5,16.3c-3,5.1-7.3,9.2-12.9,12.4-5.6,3.1-12.2,4.7-19.8,4.7-15.8,0-29.9-5.4-42.1-16.2Z"/>
          <path class="cls-1" d="M480.9,148.4h-20c-2.4,0-3.5-1.2-3.5-3.5v-78h-9.7c-2.4,0-3.5-1.2-3.5-3.5v-18c0-2.4,1.2-3.5,3.5-3.5h9.5v-19.1c0-2.2,1.1-3.5,3.2-3.9l20.3-3.9c.2,0,.5,0,.9,0,.9,0,1.7.3,2.2.9.5.6.8,1.4.8,2.4v23.7h17.6c2.4,0,3.5,1.2,3.5,3.5v18c0,2.4-1.2,3.5-3.5,3.5h-17.7v78c0,2.4-1.2,3.5-3.5,3.5Z"/>
          <path class="cls-1" d="M601.6,41.9h15.1c2.4,0,3.5,1.2,3.5,3.5v99.5c0,2.4-1.2,3.5-3.5,3.5h-15.6c-1.9,0-3.3-1-4-2.9l-1.8-7.1c-7.8,8.2-17.6,12.3-29.4,12.3s-19.1-2.5-27.4-7.4c-8.3-4.9-14.9-11.7-19.7-20.2-4.8-8.5-7.2-17.8-7.2-27.9s2.4-19.3,7.3-27.8c4.9-8.4,11.4-15.1,19.8-20,8.3-4.9,17.4-7.4,27.3-7.4s21.9,4.1,29.6,12.3l2.1-7.7c.6-1.9,2-2.8,4-2.8ZM580.9,121c4.3-2.5,7.7-6,10.2-10.4,2.5-4.4,3.7-9.4,3.7-15s-1.2-10.6-3.7-15.1c-2.5-4.5-5.9-8-10.2-10.6-4.3-2.6-9.1-3.9-14.4-3.9s-10.1,1.3-14.3,3.9c-4.2,2.6-7.6,6.1-10,10.6-2.4,4.5-3.6,9.6-3.6,15.1s1.2,10.6,3.6,15.1c2.4,4.4,5.7,7.9,9.9,10.4,4.2,2.5,9,3.7,14.3,3.7s10.2-1.2,14.5-3.8Z"/>
        </g>
        <path class="cls-1" d="M31,134.3c.9,0,1.6-.6,1.9-1.4,9.6-29.6,37.9-48.7,72.8-48.7s62.4,19.7,72.3,48.7c.3.8,1,1.4,1.9,1.4h8.5c1.6,0,2.9-1.1,3.2-2.6,2.4-12.5,2.2-25.9-1.9-39.9-10.3-35.5-42-61.5-78.9-63.7-50.8-3-93,37.3-93,87.5s.5,10.9,1.5,16.2c.3,1.5,1.7,2.6,3.2,2.6h8.3Z"/>
        <path class="cls-1" d="M105.2,126.8c-19.8,0-36,15.7-36,35.5s15.9,35.7,36.5,35.7,36.2-16.2,36.2-36.2-16.2-35-36.8-35Z"/>
        <g>
          <path class="cls-1" d="M237.3,189.1h-1.4c-.4,0-.6-.2-.6-.6v-18.3c0-.4.2-.6.6-.6h11.8c.4,0,.6.2.6.6v1.2c0,.4-.2.6-.6.6h-9.9v6.7h7.7c.4,0,.6.2.6.6v1.2c0,.4-.2.6-.6.6h-7.7v7.4c0,.4-.2.6-.6.6Z"/>
          <path class="cls-1" d="M251.6,169.3v-1.3c0-.4.2-.6.6-.6h1.3c.4,0,.6.2.6.6v1.3c0,.4-.2.6-.6.6h-1.3c-.4,0-.6-.2-.6-.6ZM253.4,189.1h-1.3c-.4,0-.6-.2-.6-.6v-15.4c0-.4.2-.6.6-.6h1.3c.4,0,.6.2.6.6v15.4c0,.4-.2.6-.6.6Z"/>
          <path class="cls-1" d="M270,173.1c1,.6,1.7,1.4,2.3,2.4.5,1,.8,2.3.8,3.7v9.3c0,.4-.2.6-.6.6h-1.3c-.4,0-.6-.2-.6-.6v-9c0-1-.2-1.9-.6-2.6-.4-.7-.9-1.3-1.6-1.7-.7-.4-1.5-.6-2.4-.6s-1.7.2-2.5.6c-.8.4-1.4,1-1.9,1.8s-.7,1.6-.7,2.5v9c0,.4-.2.6-.6.6h-1.3c-.4,0-.6-.2-.6-.6v-15.4c0-.4.2-.6.6-.6h1.1c.4,0,.6.2.6.5v1.8c.6-.8,1.4-1.4,2.5-1.9,1-.5,2.1-.7,3.1-.7s2.5.3,3.5.9Z"/>
          <path class="cls-1" d="M290.5,172.6h1.2c.4,0,.6.2.6.6v15.4c0,.4-.2.6-.6.6h-1.2c-.4,0-.5-.2-.6-.5v-2.2c-.7,1-1.5,1.7-2.4,2.3-1,.6-2.1.8-3.3.8s-2.8-.4-4-1.1-2.1-1.8-2.8-3.1-1-2.7-1-4.3.3-3,1-4.3c.7-1.3,1.6-2.3,2.8-3.1,1.2-.8,2.5-1.1,4-1.1s2.3.3,3.3.8c1,.5,1.7,1.3,2.4,2.2v-2.2c0-.4.2-.5.6-.5ZM287.2,186.3c.9-.5,1.5-1.3,2-2.2.5-.9.7-2,.7-3.2s-.2-2.2-.7-3.2c-.5-1-1.2-1.7-2-2.3-.9-.6-1.9-.8-2.9-.8s-2,.3-2.9.8c-.8.6-1.5,1.3-1.9,2.3-.5,1-.7,2-.7,3.2s.2,2.2.7,3.2c.5.9,1.1,1.7,1.9,2.2.8.5,1.8.8,2.9.8s2.1-.3,3-.8Z"/>
          <path class="cls-1" d="M308.4,173.1c1,.6,1.7,1.4,2.3,2.4.5,1,.8,2.3.8,3.7v9.3c0,.4-.2.6-.6.6h-1.3c-.4,0-.6-.2-.6-.6v-9c0-1-.2-1.9-.6-2.6-.4-.7-.9-1.3-1.6-1.7-.7-.4-1.5-.6-2.4-.6s-1.7.2-2.5.6c-.8.4-1.4,1-1.9,1.8s-.7,1.6-.7,2.5v9c0,.4-.2.6-.6.6h-1.3c-.4,0-.6-.2-.6-.6v-15.4c0-.4.2-.6.6-.6h1.1c.4,0,.6.2.6.5v1.8c.6-.8,1.4-1.4,2.5-1.9,1-.5,2.1-.7,3.1-.7s2.5.3,3.5.9Z"/>
          <path class="cls-1" d="M319,188.3c-1.3-.8-2.3-1.8-3.1-3.1s-1.1-2.7-1.1-4.3.4-3,1.1-4.3,1.8-2.3,3.1-3.1c1.3-.8,2.7-1.2,4.3-1.2s2.1.2,3.1.5,1.8.8,2.6,1.5c.1.1.2.3.2.4s0,.2-.1.4l-.6,1c-.1.2-.2.2-.4.2s-.3,0-.4-.2c-1.3-1-2.7-1.6-4.3-1.6s-2.2.3-3.1.8c-1,.5-1.7,1.3-2.3,2.3-.6,1-.8,2-.8,3.2s.3,2.3.8,3.2c.6,1,1.3,1.7,2.3,2.2,1,.5,2,.8,3.1.8s3-.5,4.3-1.6c.1-.1.2-.2.4-.2s.3,0,.4.2l.6.9c0,.1.1.3.1.4s0,.2-.2.3c-.8.7-1.6,1.2-2.6,1.5-1,.4-2,.5-3.1.5-1.6,0-3-.4-4.3-1.1Z"/>
          <path class="cls-1" d="M333.1,169.3v-1.3c0-.4.2-.6.6-.6h1.3c.4,0,.6.2.6.6v1.3c0,.4-.2.6-.6.6h-1.3c-.4,0-.6-.2-.6-.6ZM334.9,189.1h-1.3c-.4,0-.6-.2-.6-.6v-15.4c0-.4.2-.6.6-.6h1.3c.4,0,.6.2.6.6v15.4c0,.4-.2.6-.6.6Z"/>
          <path class="cls-1" d="M353.3,172.6h1.2c.4,0,.6.2.6.6v15.4c0,.4-.2.6-.6.6h-1.2c-.4,0-.5-.2-.6-.5v-2.2c-.7,1-1.5,1.7-2.4,2.3-1,.6-2.1.8-3.3.8s-2.8-.4-4-1.1-2.1-1.8-2.8-3.1-1-2.7-1-4.3.3-3,1-4.3c.7-1.3,1.6-2.3,2.8-3.1,1.2-.8,2.5-1.1,4-1.1s2.3.3,3.3.8c1,.5,1.7,1.3,2.4,2.2v-2.2c0-.4.2-.5.6-.5ZM350,186.3c.9-.5,1.5-1.3,2-2.2.5-.9.7-2,.7-3.2s-.2-2.2-.7-3.2c-.5-1-1.2-1.7-2-2.3-.9-.6-1.9-.8-2.9-.8s-2,.3-2.9.8c-.8.6-1.5,1.3-1.9,2.3-.5,1-.7,2-.7,3.2s.2,2.2.7,3.2c.5.9,1.1,1.7,1.9,2.2.8.5,1.8.8,2.9.8s2.1-.3,3-.8Z"/>
          <path class="cls-1" d="M380.8,173.1c.9.5,1.6,1.3,2.1,2.3s.8,2.2.8,3.5v9.6c0,.4-.2.6-.6.6h-1.3c-.4,0-.6-.2-.6-.6v-9.3c0-.9-.2-1.8-.5-2.5-.3-.7-.8-1.2-1.4-1.6-.6-.4-1.3-.6-2.2-.6s-1.4.2-2.1.6c-.7.4-1.2,1-1.6,1.7-.4.7-.6,1.5-.6,2.3v9.4c0,.4-.2.6-.6.6h-1.3c-.4,0-.6-.2-.6-.6v-9.3c0-.9-.2-1.8-.5-2.5-.3-.7-.8-1.2-1.4-1.6s-1.3-.6-2.2-.6-1.4.2-2.1.6c-.7.4-1.2,1-1.6,1.7-.4.7-.6,1.5-.6,2.3v9.3c0,.4-.2.6-.6.6h-1.3c-.4,0-.6-.2-.6-.6v-15.4c0-.4.2-.6.6-.6h1.1c.4,0,.6.2.6.5v1.3c.6-.7,1.3-1.2,2.2-1.6s1.7-.6,2.5-.6c1.2,0,2.3.3,3.2.8.9.5,1.6,1.3,2.1,2.3.4-.7.8-1.3,1.4-1.7.6-.5,1.3-.8,1.9-1.1.7-.2,1.4-.3,2-.3,1.2,0,2.3.3,3.2.8Z"/>
          <path class="cls-1" d="M391.1,188.3c-1.2-.8-2.2-1.8-3-3.1-.7-1.3-1.1-2.7-1.1-4.3s.3-3,1-4.3c.7-1.3,1.6-2.4,2.8-3.1,1.2-.8,2.5-1.2,3.9-1.2s2.8.4,4,1.1c1.1.7,2,1.8,2.6,3.1.6,1.3.9,2.8.9,4.4v.6c0,.1,0,.2-.2.3,0,0-.2.1-.4.1h-12.3c.1,1.1.5,2,1,2.8s1.3,1.4,2.1,1.9c.8.4,1.7.6,2.7.6,1.6,0,3-.5,4.3-1.6.1-.1.3-.2.4-.2s.3,0,.4.2l.6,1c0,.1.1.3.1.4,0,.2,0,.3-.2.4-.8.7-1.7,1.2-2.6,1.5-1,.4-2,.5-3.1.5s-2.8-.4-4.1-1.1ZM399,176.9c-.5-.8-1-1.3-1.8-1.8-.7-.4-1.5-.6-2.5-.6s-1.7.2-2.4.6c-.8.4-1.4,1-1.9,1.8s-.8,1.7-1,2.7h10.4c-.1-1-.4-1.9-.9-2.7Z"/>
          <path class="cls-1" d="M417.3,173.1c1,.6,1.7,1.4,2.3,2.4.5,1,.8,2.3.8,3.7v9.3c0,.4-.2.6-.6.6h-1.3c-.4,0-.6-.2-.6-.6v-9c0-1-.2-1.9-.6-2.6-.4-.7-.9-1.3-1.6-1.7-.7-.4-1.5-.6-2.4-.6s-1.7.2-2.5.6c-.8.4-1.4,1-1.9,1.8s-.7,1.6-.7,2.5v9c0,.4-.2.6-.6.6h-1.3c-.4,0-.6-.2-.6-.6v-15.4c0-.4.2-.6.6-.6h1.1c.4,0,.6.2.6.5v1.8c.6-.8,1.4-1.4,2.5-1.9,1-.5,2.1-.7,3.1-.7s2.5.3,3.5.9Z"/>
          <path class="cls-1" d="M427,189.1h-1.3c-.4,0-.6-.2-.6-.6v-13.7h-1.5c-.4,0-.6-.2-.6-.6v-1.1c0-.4.2-.6.6-.6h1.5v-2.9c0-.3.2-.5.5-.6l1.3-.2s0,0,.1,0c.1,0,.3,0,.3.1,0,0,.1.2.1.4v3.2h3.1c.4,0,.6.2.6.6v1.1c0,.4-.2.6-.6.6h-3.1v13.7c0,.4-.2.6-.6.6Z"/>
          <path class="cls-1" d="M437.1,188.3c-1.3-.8-2.3-1.8-3.1-3.1-.8-1.3-1.1-2.7-1.1-4.3s.4-3,1.1-4.3,1.8-2.4,3.1-3.1c1.3-.8,2.7-1.2,4.2-1.2s2.9.4,4.2,1.2c1.3.8,2.3,1.8,3.1,3.1.8,1.3,1.1,2.8,1.1,4.3s-.4,3-1.2,4.3-1.8,2.3-3.1,3.1c-1.3.8-2.7,1.1-4.2,1.1s-2.9-.4-4.2-1.1ZM444.3,186.3c.9-.6,1.7-1.3,2.2-2.3.6-1,.8-2,.8-3.2s-.3-2.2-.8-3.2c-.6-1-1.3-1.7-2.2-2.3-.9-.6-1.9-.8-3-.8s-2.1.3-3,.8c-.9.6-1.7,1.3-2.2,2.3-.6,1-.8,2-.8,3.2s.3,2.2.8,3.2c.6,1,1.3,1.7,2.2,2.3.9.6,1.9.8,3,.8s2-.3,3-.8Z"/>
          <path class="cls-1" d="M473.7,167.5h1.3c.4,0,.6.2.6.6v20.5c0,.4-.2.6-.6.6h-1.2c-.2,0-.3,0-.4-.1,0,0-.1-.2-.1-.4v-2.2c-.7,1-1.5,1.7-2.4,2.3-1,.6-2.1.8-3.3.8s-2.8-.4-4-1.1-2.1-1.8-2.8-3.1-1-2.7-1-4.3.3-3,1-4.3c.7-1.3,1.6-2.3,2.8-3.1,1.2-.8,2.5-1.1,4-1.1s2.3.3,3.3.8c1,.5,1.7,1.2,2.4,2.1v-7.1c0-.4.2-.6.6-.6ZM470.5,186.3c.9-.5,1.5-1.3,2-2.2.5-.9.7-2,.7-3.2s-.2-2.2-.7-3.2c-.5-1-1.2-1.7-2-2.3-.9-.6-1.9-.8-2.9-.8s-2,.3-2.9.8c-.8.6-1.5,1.3-1.9,2.3-.5,1-.7,2-.7,3.2s.2,2.2.7,3.2c.5.9,1.1,1.7,1.9,2.2.8.5,1.8.8,2.9.8s2.1-.3,3-.8Z"/>
          <path class="cls-1" d="M483.3,188.3c-1.2-.8-2.2-1.8-3-3.1-.7-1.3-1.1-2.7-1.1-4.3s.3-3,1-4.3c.7-1.3,1.6-2.4,2.8-3.1,1.2-.8,2.5-1.2,3.9-1.2s2.8.4,4,1.1c1.1.7,2,1.8,2.6,3.1.6,1.3.9,2.8.9,4.4v.6c0,.1,0,.2-.2.3,0,0-.2.1-.4.1h-12.3c.1,1.1.5,2,1,2.8s1.3,1.4,2.1,1.9c.8.4,1.7.6,2.7.6,1.6,0,3-.5,4.3-1.6.1-.1.3-.2.4-.2s.3,0,.4.2l.6,1c0,.1.1.3.1.4,0,.2,0,.3-.2.4-.8.7-1.7,1.2-2.6,1.5-1,.4-2,.5-3.1.5s-2.8-.4-4.1-1.1ZM491.2,176.9c-.5-.8-1-1.3-1.8-1.8-.7-.4-1.5-.6-2.5-.6s-1.7.2-2.4.6c-.8.4-1.4,1-1.9,1.8s-.8,1.7-1,2.7h10.4c-.1-1-.4-1.9-.9-2.7Z"/>
          <path class="cls-1" d="M512.4,189.1h-1.2c-.3,0-.5-.1-.7-.4l-7.3-18.3c0,0,0-.2,0-.2,0-.1,0-.2.1-.3,0,0,.2-.1.4-.1h1.5c.3,0,.5.1.6.4l6,15.5h0s6-15.5,6-15.5c.1-.3.3-.4.6-.4h1.5c.2,0,.3,0,.4,0,0,0,.1.2.1.3s0,.2,0,.3l-7.3,18.3c-.1.3-.3.4-.6.4Z"/>
          <path class="cls-1" d="M524.9,188.3c-1.2-.8-2.2-1.8-3-3.1-.7-1.3-1.1-2.7-1.1-4.3s.3-3,1-4.3c.7-1.3,1.6-2.4,2.8-3.1,1.2-.8,2.5-1.2,3.9-1.2s2.8.4,4,1.1c1.1.7,2,1.8,2.6,3.1.6,1.3.9,2.8.9,4.4v.6c0,.1,0,.2-.2.3,0,0-.2.1-.4.1h-12.3c.1,1.1.5,2,1,2.8s1.3,1.4,2.1,1.9c.8.4,1.7.6,2.7.6,1.6,0,3-.5,4.3-1.6.1-.1.3-.2.4-.2s.3,0,.4.2l.6,1c0,.1.1.3.1.4,0,.2,0,.3-.2.4-.8.7-1.7,1.2-2.6,1.5-1,.4-2,.5-3.1.5s-2.8-.4-4.1-1.1ZM532.8,176.9c-.5-.8-1-1.3-1.8-1.8-.7-.4-1.5-.6-2.5-.6s-1.7.2-2.4.6c-.8.4-1.4,1-1.9,1.8s-.8,1.7-1,2.7h10.4c-.1-1-.4-1.9-.9-2.7Z"/>
          <path class="cls-1" d="M543.3,166.5c0,0,.1.1.1.2s0,.2-.1.3l-2,2.6c-.2.2-.4.3-.7.3h-.9c-.1,0-.3,0-.4-.1,0,0-.1-.2-.1-.3s0-.2,0-.3l1.4-2.5c.1-.3.4-.4.7-.4h1.5c.1,0,.3,0,.3,0ZM541.7,189.1h-1.3c-.4,0-.6-.2-.6-.6v-15.4c0-.4.2-.6.6-.6h1.3c.4,0,.6.2.6.6v15.4c0,.4-.2.6-.6.6Z"/>
          <path class="cls-1" d="M550.2,188.3c-1.3-.8-2.3-1.8-3.1-3.1s-1.1-2.7-1.1-4.3.4-3,1.1-4.3c.7-1.3,1.8-2.3,3.1-3.1,1.3-.8,2.7-1.2,4.3-1.2s2.1.2,3.1.5,1.8.8,2.6,1.5c.1.1.2.3.2.4s0,.2-.1.4l-.6,1c-.1.2-.2.2-.4.2s-.3,0-.4-.2c-1.3-1-2.7-1.6-4.3-1.6s-2.2.3-3.1.8c-1,.5-1.7,1.3-2.3,2.3-.6,1-.8,2-.8,3.2s.3,2.3.8,3.2c.6,1,1.3,1.7,2.3,2.2,1,.5,2,.8,3.1.8s3-.5,4.3-1.6c.1-.1.2-.2.4-.2s.3,0,.4.2l.6.9c0,.1.1.3.1.4s0,.2-.2.3c-.8.7-1.6,1.2-2.6,1.5-1,.4-2,.5-3.1.5-1.6,0-3-.4-4.3-1.1Z"/>
          <path class="cls-1" d="M576.4,172.6h1.3c.4,0,.6.2.6.6v15.4c0,.4-.2.6-.6.6h-1.1c-.2,0-.3,0-.4-.1,0,0-.1-.2-.2-.4v-1.8c-.7.7-1.5,1.4-2.5,1.9-1,.5-2.1.7-3.1.7s-2.5-.3-3.5-.9c-1-.6-1.8-1.4-2.3-2.4s-.8-2.3-.8-3.7v-9.3c0-.4.2-.6.6-.6h1.3c.4,0,.6.2.6.6v9c0,1,.2,1.9.6,2.6.4.7.9,1.3,1.6,1.7.7.4,1.5.6,2.4.6s1.8-.2,2.5-.6c.8-.4,1.4-1,1.9-1.8.5-.7.7-1.6.7-2.5v-9c0-.4.2-.6.6-.6Z"/>
          <path class="cls-1" d="M584.9,189.1h-1.3c-.4,0-.6-.2-.6-.6v-20.5c0-.4.2-.6.6-.6h1.3c.4,0,.6.2.6.6v20.5c0,.4-.2.6-.6.6Z"/>
          <path class="cls-1" d="M593.5,188.3c-1.3-.8-2.3-1.8-3.1-3.1-.8-1.3-1.1-2.7-1.1-4.3s.4-3,1.1-4.3,1.8-2.4,3.1-3.1c1.3-.8,2.7-1.2,4.2-1.2s2.9.4,4.2,1.2c1.3.8,2.3,1.8,3.1,3.1.8,1.3,1.1,2.8,1.1,4.3s-.4,3-1.2,4.3c-.8,1.3-1.8,2.3-3.1,3.1-1.3.8-2.7,1.1-4.2,1.1s-2.9-.4-4.2-1.1ZM600.6,186.3c.9-.6,1.7-1.3,2.2-2.3.6-1,.8-2,.8-3.2s-.3-2.2-.8-3.2c-.6-1-1.3-1.7-2.2-2.3-.9-.6-1.9-.8-3-.8s-2.1.3-3,.8c-.9.6-1.7,1.3-2.2,2.3-.6,1-.8,2-.8,3.2s.3,2.2.8,3.2c.6,1,1.3,1.7,2.2,2.3.9.6,1.9.8,3,.8s2-.3,3-.8Z"/>
          <path class="cls-1" d="M611.3,188.8c-1-.4-2-.9-2.8-1.6-.1-.1-.2-.3-.2-.4s0-.2.1-.4l.7-.9c.1-.2.3-.2.4-.2s.2,0,.4.2c.7.5,1.4.9,2.2,1.2.8.3,1.6.5,2.4.5s1.2-.1,1.7-.3c.5-.2.9-.5,1.2-.9s.4-.9.4-1.4-.1-1-.4-1.3c-.3-.3-.7-.6-1.3-.8-.6-.2-1.3-.5-2.3-.7-1.5-.4-2.8-1-3.7-1.8-.9-.8-1.4-1.8-1.4-3.1s.2-1.5.6-2.2c.4-.7,1-1.2,1.9-1.6s1.9-.6,3.2-.6,1.7.2,2.6.5c.9.3,1.6.7,2.3,1.3.1.1.2.2.2.4s0,.3-.2.4l-.7.9c-.1.1-.2.2-.4.2s-.2,0-.4-.2c-.5-.4-1-.6-1.6-.9-.6-.2-1.2-.3-1.8-.3-1.1,0-1.9.2-2.5.6-.5.4-.8,1-.8,1.6s.1.8.4,1.1c.2.3.7.6,1.2.9.6.3,1.4.5,2.4.8,1.6.4,2.9,1,3.8,1.8.9.7,1.4,1.8,1.4,3.1s-.2,1.7-.7,2.5-1.1,1.4-2,1.8c-.8.4-1.8.7-2.9.7s-2.3-.2-3.3-.6Z"/>
        </g>
      </g>
    </g>
  </g>
</svg>